<svg width="49" height="57" viewBox="0 0 49 57" fill="none" xmlns="http://www.w3.org/2000/svg">
<path d="M24.4691 24.3043C31.0891 24.3043 36.4761 18.8533 36.4761 12.1548C36.4761 5.451 31.0891 0 24.4691 0C17.8441 0 12.457 5.451 12.457 12.1496C12.457 18.8533 17.8441 24.3043 24.4691 24.3043ZM24.4691 2.13795C29.9278 2.13795 34.3684 6.63128 34.3684 12.1548C34.3684 17.6782 29.9278 22.1716 24.4691 22.1716C19.0105 22.1716 14.5699 17.6782 14.5699 12.1548C14.5699 6.63128 19.0105 2.13795 24.4691 2.13795Z" fill="#1771F1"/>
<path d="M40.6049 44.1929H33.8263C33.2431 44.1929 32.7725 44.6691 32.7725 45.2593V48.3083C32.7725 48.8984 33.2431 49.3747 33.8263 49.3747H40.5998C41.183 49.3747 41.6536 48.8984 41.6536 48.3083V45.2593C41.6588 44.6743 41.1881 44.1929 40.6049 44.1929ZM39.5459 46.3308V47.2419H34.8853V46.3308H39.5459Z" fill="#1771F1"/>
<path d="M36.7679 28.8805C29.1606 24.1957 21.7477 23.8437 14.1659 27.7883C14.0482 27.8141 13.9357 27.8607 13.8283 27.928C13.7873 27.9539 13.7566 27.985 13.7208 28.016C13.2246 28.2852 12.7283 28.5699 12.2321 28.8754C6.53299 32.3851 0 38.623 0 55.9285C0 56.5186 0.470662 56.9949 1.05387 56.9949C1.63708 56.9949 2.10775 56.5186 2.10775 55.9285C2.10775 39.6894 8.09846 33.9174 13.3218 30.7027C13.5673 30.5526 13.818 30.418 14.0636 30.273L17.8954 36.2831L16.6829 37.1528C16.335 37.4013 16.1713 37.8413 16.2634 38.2606L19.8752 54.4428C19.9878 54.9397 20.4226 55.2762 20.9035 55.2762C20.9803 55.2762 21.057 55.2659 21.1389 55.2503C21.7067 55.1209 22.0648 54.5463 21.9369 53.9717L18.4786 38.4832L19.9417 37.4323C20.4022 37.101 20.525 36.4643 20.218 35.9829L15.9411 29.2791C18.453 28.0885 20.9445 27.4207 23.4359 27.2758V47.2007C23.4359 47.7908 23.9066 48.2671 24.4898 48.2671C25.073 48.2671 25.5436 47.7908 25.5436 47.2007V27.2758C28.0197 27.4207 30.4958 28.0782 32.9924 29.2584L28.7001 35.9881C28.3932 36.4695 28.516 37.1062 28.9764 37.4375L30.4395 38.4884L26.9812 53.9769C26.8533 54.5515 27.2114 55.1261 27.7793 55.2555C27.856 55.271 27.9379 55.2814 28.0146 55.2814C28.4955 55.2814 28.9304 54.9449 29.0429 54.448L32.6547 38.2658C32.7468 37.8465 32.5831 37.4065 32.2352 37.158L31.0228 36.2883L34.875 30.2523C35.1359 30.4025 35.402 30.5474 35.668 30.7079C40.8913 33.9226 46.882 39.6894 46.882 55.9337C46.882 56.5238 47.3527 57 47.9359 57C48.5191 57 48.9898 56.5238 48.9898 55.9337C49 38.623 42.4619 32.3851 36.7679 28.8805Z" fill="#1771F1"/>
</svg>
