<svg width="45" height="57" viewBox="0 0 45 57" fill="none" xmlns="http://www.w3.org/2000/svg">
<path d="M45 15.3658C45 15.0128 44.8284 14.6966 44.5603 14.5016L30.1251 0.316169C30.0554 0.247666 29.975 0.194971 29.8892 0.147546C29.8677 0.137007 29.8463 0.126468 29.8248 0.115929C29.739 0.0737728 29.6532 0.0421559 29.5567 0.0210779H29.5514C29.487 0.00526948 29.4173 0 29.3422 0H1.10462C0.493327 0 0 0.484792 0 1.08551V55.9092C0 56.5099 0.493327 56.9947 1.10462 56.9947H43.8739C44.4852 56.9947 44.9785 56.5099 44.9785 55.9092V15.5081C44.9893 15.4607 45 15.4185 45 15.3658ZM41.2035 14.2803H30.4522V3.71499L41.2035 14.2803ZM2.21461 54.8237V2.1763H28.2376V15.3711C28.2376 15.9718 28.7309 16.4566 29.3422 16.4566H42.7693V54.8237H2.21461Z" fill="#1771F1"/>
<path d="M15.9529 41.297C15.7223 41.297 15.4971 41.2285 15.304 41.0915C14.9609 40.8491 14.7946 40.4381 14.8643 40.0271L16.0172 33.435L11.1429 28.7662C10.8426 28.4764 10.7354 28.0443 10.8641 27.6491C10.9928 27.2539 11.3413 26.9693 11.7596 26.9114L18.4946 25.947L21.5082 19.9451C21.6958 19.5762 22.0766 19.3391 22.5002 19.3391C22.9238 19.3391 23.3045 19.5762 23.4922 19.9451L26.5058 25.947L33.2461 26.9114C33.6644 26.9693 34.0076 27.2591 34.1416 27.6491C34.2703 28.0443 34.1631 28.4764 33.8628 28.7662L28.9885 33.435L30.1092 39.8585C30.1468 39.9691 30.1682 40.0903 30.1682 40.2168C30.1682 40.8175 29.6749 41.3023 29.0636 41.3023C29.0582 41.3023 29.0529 41.3023 29.0475 41.3023C28.8705 41.3023 28.6936 41.2602 28.5327 41.1758L22.5055 38.0616L16.4784 41.1758C16.3014 41.2549 16.1298 41.297 15.9529 41.297ZM22.4895 35.743C22.6664 35.743 22.8434 35.7852 23.0042 35.8695L27.5621 38.2249L26.6935 33.24C26.6345 32.887 26.7524 32.5286 27.0098 32.2757L30.6937 28.7451L25.5996 28.0179C25.2403 27.9653 24.9293 27.7439 24.7684 27.4225L22.4895 22.8855L20.2105 27.4225C20.0496 27.7439 19.7386 27.9653 19.3794 28.0179L14.2852 28.7451L17.9691 32.2757C18.2318 32.5234 18.3498 32.887 18.2855 33.24L17.4168 38.2249L21.9747 35.8695C22.1409 35.7852 22.3125 35.743 22.4895 35.743Z" fill="#1771F1"/>
</svg>
