<svg width="71" height="57" viewBox="0 0 71 57" fill="none" xmlns="http://www.w3.org/2000/svg">
<path d="M33.7315 34.9166C33.404 34.9166 33.0819 34.7716 32.8618 34.4977L32.7437 34.3474C32.3625 33.8694 32.443 33.1714 32.9208 32.7901C33.3986 32.4089 34.0965 32.4894 34.4777 32.9673L34.5958 33.1177C34.977 33.5956 34.8965 34.2937 34.4187 34.6749C34.22 34.836 33.9731 34.9166 33.7315 34.9166Z" fill="#1771F1"/>
<path d="M36.5176 32.8438C36.1901 32.8438 35.868 32.6988 35.6479 32.425L35.5298 32.2746C35.1486 31.7967 35.2292 31.0986 35.707 30.7174C36.1848 30.3361 36.8827 30.4167 37.2638 30.8946L37.382 31.0449C37.7631 31.5228 37.6826 32.2209 37.2048 32.6022C37.0008 32.7686 36.7592 32.8438 36.5176 32.8438Z" fill="#1771F1"/>
<path d="M39.2989 30.7764C38.9714 30.7764 38.6493 30.6314 38.4292 30.3576L38.3111 30.2072C37.9299 29.7293 38.0104 29.0312 38.4882 28.65C38.966 28.2687 39.6639 28.3493 40.0451 28.8272L40.1632 28.9775C40.5444 29.4555 40.4638 30.1535 39.986 30.5348C39.782 30.6959 39.5405 30.7764 39.2989 30.7764Z" fill="#1771F1"/>
<path d="M42.0796 28.7037C41.7521 28.7037 41.43 28.5587 41.2099 28.2848L41.0918 28.1345C40.7107 27.6566 40.7912 26.9585 41.269 26.5772C41.7468 26.196 42.4447 26.2765 42.8259 26.7544L42.944 26.9048C43.3251 27.3827 43.2446 28.0808 42.7668 28.462C42.5628 28.6231 42.3212 28.7037 42.0796 28.7037Z" fill="#1771F1"/>
<path d="M40.1954 37.9451C39.8679 37.9451 39.5458 37.8001 39.3257 37.5263L39.2075 37.3759C38.8264 36.898 38.9069 36.1999 39.3847 35.8187C39.8625 35.4374 40.5604 35.518 40.9416 35.9959L41.0597 36.1462C41.4408 36.6242 41.3603 37.3222 40.8825 37.7035C40.6785 37.8646 40.4369 37.9451 40.1954 37.9451Z" fill="#1771F1"/>
<path d="M42.9761 35.8777C42.6486 35.8777 42.3265 35.7327 42.1064 35.4589L41.9883 35.3085C41.6071 34.8306 41.6877 34.1326 42.1655 33.7513C42.6433 33.3701 43.3412 33.4506 43.7223 33.9285L43.8404 34.0789C44.2216 34.5568 44.1411 35.2548 43.6633 35.6361C43.4593 35.7972 43.2177 35.8777 42.9761 35.8777Z" fill="#1771F1"/>
<path d="M45.7574 33.805C45.4299 33.805 45.1078 33.66 44.8877 33.3861L44.7696 33.2358C44.3884 32.7579 44.4689 32.0598 44.9467 31.6786C45.4245 31.2973 46.1224 31.3778 46.5036 31.8558L46.6217 32.0061C47.0029 32.484 46.9223 33.1821 46.4445 33.5633C46.2459 33.7244 45.9989 33.805 45.7574 33.805Z" fill="#1771F1"/>
<path d="M48.5382 31.7323C48.2107 31.7323 47.8886 31.5873 47.6685 31.3135L47.5504 31.1631C47.1692 30.6852 47.2498 29.9871 47.7329 29.6059C48.2107 29.2246 48.9086 29.3052 49.2898 29.7884L49.4079 29.9388C49.7891 30.4167 49.7085 31.1148 49.2254 31.496C49.0214 31.6571 48.7798 31.7323 48.5382 31.7323Z" fill="#1771F1"/>
<path d="M46.4761 41.1993C46.1486 41.1993 45.8265 41.0543 45.6064 40.7804L45.4883 40.6301C45.1071 40.1522 45.1877 39.4541 45.6655 39.0728C46.1433 38.6916 46.8412 38.7721 47.2223 39.25L47.3404 39.4004C47.7216 39.8783 47.6411 40.5764 47.1633 40.9576C46.9593 41.1241 46.7177 41.1993 46.4761 41.1993Z" fill="#1771F1"/>
<path d="M49.2568 39.1318C48.9293 39.1318 48.6072 38.9868 48.3871 38.7129L48.2689 38.5626C47.8878 38.0847 47.9737 37.3866 48.4515 37.0053C48.9293 36.6241 49.6272 36.71 50.0083 37.1879L50.1265 37.3383C50.5076 37.8162 50.4271 38.5142 49.9439 38.8955C49.7399 39.0512 49.4983 39.1318 49.2568 39.1318Z" fill="#1771F1"/>
<path d="M52.0381 37.0591C51.7106 37.0591 51.3885 36.9141 51.1684 36.6403L51.0503 36.4899C50.6692 36.012 50.7497 35.314 51.2275 34.9327C51.7053 34.5514 52.4032 34.632 52.7843 35.1099L52.9025 35.2603C53.2836 35.7382 53.2031 36.4362 52.7253 36.8175C52.5267 36.984 52.2797 37.0591 52.0381 37.0591Z" fill="#1771F1"/>
<path d="M54.8189 34.9917C54.4914 34.9917 54.1693 34.8468 53.9492 34.5729L53.8311 34.4226C53.4499 33.9446 53.5304 33.2466 54.0082 32.8653C54.486 32.4841 55.1839 32.5646 55.5651 33.0425L55.6832 33.1929C56.0644 33.6708 55.9839 34.3689 55.5061 34.7501C55.3074 34.9112 55.0605 34.9917 54.8189 34.9917Z" fill="#1771F1"/>
<path d="M68.6053 35.491L25.7002 13.3622C24.4493 8.77647 21.0349 1.44675 11.8226 0.0130193C11.5488 -0.0299388 11.2642 0.0344983 11.0334 0.190221L0.489633 7.30515C0.108469 7.5629 -0.0740608 8.0247 0.0279409 8.47039C0.129943 8.91608 0.495001 9.25438 0.951325 9.31881C6.33594 10.0921 10.1154 13.1475 12.2037 18.3991L4.41401 23.3607C4.3818 23.3822 4.36033 23.4091 4.33349 23.4305C4.28517 23.4681 4.24222 23.5003 4.19927 23.5433C4.17243 23.5755 4.15096 23.6077 4.12411 23.6453C4.0919 23.6883 4.05969 23.7312 4.03285 23.7742C4.01138 23.8118 4.00064 23.8548 3.98453 23.8923C3.96306 23.9407 3.94158 23.989 3.93085 24.0373C3.92011 24.0803 3.92011 24.1232 3.91474 24.1662C3.90937 24.2092 3.89864 24.2521 3.89864 24.2951V33.2304C3.89864 34.5782 4.37107 35.8938 5.23003 36.9247C6.30373 38.2189 8.32229 40.1359 11.8387 41.8918C14.888 43.4168 17.9695 43.7336 20.0203 43.7336C21.0886 43.7336 21.91 43.6477 22.3556 43.5886L50.7496 56.8895C50.7979 56.911 50.8463 56.9217 50.8946 56.9378C50.916 56.9432 50.9375 56.954 50.959 56.9593C51.0449 56.9808 51.1308 56.9915 51.2221 56.9915C51.4314 56.9915 51.6354 56.9325 51.818 56.8197C51.8233 56.8143 51.8287 56.8143 51.8341 56.809L68.8147 46.005C69.5609 45.5271 70.0065 44.7109 70.0065 43.8249V37.7947C70.0011 36.8227 69.4696 35.9421 68.6053 35.491ZM51.5764 46.4722L50.9107 46.1339C50.9107 46.1339 50.9107 46.1339 50.9053 46.1339L26.4517 33.8371L7.24859 24.1823L12.9392 20.5631C13.7552 23.5057 13.766 25.8953 13.766 25.9221C13.766 26.3356 13.9968 26.7168 14.3619 26.9048C14.5229 26.9907 14.7001 27.0283 14.8719 27.0283C15.0973 27.0283 15.3175 26.9585 15.5107 26.8296L26.076 19.4193C26.382 19.2045 26.5591 18.8555 26.5484 18.485C26.5484 18.4313 26.5215 17.5345 26.3068 16.1706L66.6726 36.9892L51.5764 46.4722ZM3.87716 7.69178L11.9031 2.27369C19.4619 3.64835 22.479 9.59804 23.6816 14.3932C24.0735 15.9451 24.2292 17.25 24.2936 17.9588L15.8382 23.8923C15.6771 22.5123 15.3336 20.5685 14.6088 18.485C14.6088 18.4796 14.6034 18.4689 14.5981 18.4635C14.5981 18.4581 14.5981 18.4581 14.5927 18.4528C13.1862 14.4416 10.1959 9.56045 3.87716 7.69178ZM22.522 41.3387C22.4522 41.3387 22.3878 41.3441 22.318 41.3548C22.2965 41.3602 17.5239 42.2569 12.8265 39.9103C9.65368 38.3263 7.87133 36.6402 6.93184 35.5125C6.40573 34.8735 6.11046 34.0627 6.11046 33.2304V26.0939L10.8777 28.4942L49.9068 48.1207C50.0302 48.1798 50.1054 48.3086 50.1054 48.4483V54.1456L22.9944 41.4461C22.8441 41.3763 22.6831 41.3387 22.522 41.3387ZM67.6175 44.1417L52.328 53.8717V48.6201L67.7839 38.9008V43.8303C67.7893 43.9538 67.7195 44.0773 67.6175 44.1417Z" fill="#1771F1"/>
<path d="M26.4086 31.1415C25.9094 31.1415 25.4155 31.0073 24.986 30.7495L22.7742 29.4286C21.9742 28.9507 21.4696 28.113 21.4213 27.184C21.373 26.255 21.7863 25.369 22.5326 24.8106L28.1212 20.6329C29.007 19.9724 30.2632 19.9026 31.2135 20.4718L33.4253 21.7928C34.2252 22.2707 34.7298 23.1084 34.7781 24.0373C34.8265 24.9663 34.4131 25.8523 33.6669 26.4108L28.0782 30.5884C27.5951 30.9482 27.0153 31.1415 26.4086 31.1415ZM29.7854 22.2921C29.662 22.2921 29.5438 22.3297 29.4472 22.4049L23.8586 26.5826C23.6492 26.7383 23.6277 26.9531 23.6331 27.0659C23.6385 27.1786 23.6814 27.388 23.9069 27.5223L26.1187 28.8433C26.312 28.9614 26.5697 28.9453 26.7469 28.811L32.3355 24.6334C32.5448 24.4776 32.5663 24.2628 32.5609 24.1501C32.5556 24.0373 32.5126 23.8279 32.2872 23.6937L30.0753 22.3727C29.9894 22.319 29.8874 22.2921 29.7854 22.2921Z" fill="#1771F1"/>
</svg>
