<svg width="57" height="42" viewBox="0 0 57 42" fill="none" xmlns="http://www.w3.org/2000/svg">
<path d="M53.8076 18.76L49.745 11.9861H50.0127C50.2856 11.9861 50.5431 12.1243 50.6924 12.3496L52.7881 15.5343C52.994 15.8466 53.3339 16.0105 53.6789 16.0105C53.8797 16.0105 54.0805 15.9542 54.2607 15.8364C54.7499 15.519 54.8889 14.8636 54.5697 14.3721L52.474 11.1874C51.9282 10.3579 51.0117 9.86639 50.0179 9.86639H46.8358H38.206V3.47141C38.206 1.5565 36.6407 0 34.7201 0H5.36016C3.43442 0 1.86911 1.5565 1.86911 3.47141V26.3889C0.808401 26.5783 0 27.4948 0 28.6008V34.2175C0 35.4617 1.01951 36.4754 2.27073 36.4754H8.89756C9.40732 39.5987 12.1312 41.9949 15.4163 41.9949C18.7014 41.9949 21.4304 39.5987 21.9401 36.4754H40.0184C40.5282 39.5987 43.252 41.9949 46.5371 41.9949C49.8222 41.9949 52.5461 39.5987 53.0558 36.4754H55.9342C56.5211 36.4754 56.9949 36.0044 56.9949 35.4207V28.268C57.0309 25.0321 55.4038 21.1408 53.8076 18.76ZM3.99567 3.47141C3.99567 2.72388 4.6084 2.11459 5.36016 2.11459H34.7201C35.4718 2.11459 36.0846 2.72388 36.0846 3.47141V10.9314V26.353H3.99567V3.47141ZM15.4163 39.8854C12.9396 39.8854 10.9263 37.8835 10.9263 35.4258C10.9263 32.9631 12.9396 30.9611 15.4163 30.9611C17.893 30.9611 19.9114 32.9631 19.9114 35.4258C19.9114 37.8835 17.893 39.8854 15.4163 39.8854ZM46.5423 39.8854C44.0656 39.8854 42.0523 37.8835 42.0523 35.4258C42.0523 32.9631 44.0656 30.9611 46.5423 30.9611C49.0138 30.9611 51.0271 32.9631 51.0271 35.4258C51.0271 37.8835 49.0138 39.8854 46.5423 39.8854ZM54.8786 34.366H53.0713C53.061 34.3148 53.0507 34.2636 53.0404 34.2175C53.0249 34.1356 53.0044 34.0485 52.9889 33.9666C52.9632 33.8437 52.9323 33.726 52.8962 33.6082C52.8705 33.5263 52.8499 33.4444 52.8241 33.3675C52.7829 33.2498 52.7417 33.1371 52.6954 33.0194C52.6645 32.9426 52.6336 32.8658 52.6027 32.7941C52.5512 32.6763 52.4946 32.5637 52.4328 32.4511C52.3968 32.3845 52.3659 32.3179 52.3298 32.2514C52.2629 32.1285 52.1856 32.0056 52.1084 31.8878C52.0775 31.8366 52.0466 31.7854 52.0106 31.7342C51.8973 31.5653 51.7737 31.4066 51.645 31.2478C51.6399 31.2427 51.6347 31.2376 51.6296 31.2325C51.506 31.084 51.3721 30.9406 51.2382 30.8024C51.1919 30.7563 51.1404 30.7154 51.0941 30.6693C50.9962 30.5771 50.8932 30.4849 50.7903 30.3928C50.7285 30.3416 50.6667 30.2955 50.6049 30.2494C50.5071 30.1726 50.4092 30.0958 50.3062 30.0293C50.2393 29.9832 50.1672 29.9371 50.0951 29.891C49.9922 29.8245 49.8943 29.763 49.7862 29.7067C49.7141 29.6657 49.6369 29.6248 49.5596 29.5838C49.4515 29.5275 49.3485 29.4763 49.2352 29.4302C49.158 29.3944 49.0756 29.3585 48.9984 29.3278C48.8851 29.2817 48.7718 29.2408 48.6586 29.2049C48.5762 29.1793 48.4989 29.1486 48.4165 29.123C48.2981 29.0872 48.1745 29.0564 48.051 29.0308C47.9737 29.0104 47.8913 28.9899 47.8141 28.9745C47.6751 28.9489 47.5361 28.9284 47.397 28.9131C47.3249 28.9028 47.258 28.8926 47.1911 28.8824C46.98 28.8619 46.7637 28.8516 46.5474 28.8516C46.3312 28.8516 46.1149 28.8619 45.9038 28.8824C45.8317 28.8875 45.7648 28.9028 45.6927 28.9131C45.5537 28.9336 45.4146 28.9489 45.2756 28.9745C45.1932 28.9899 45.116 29.0104 45.0336 29.0308C44.91 29.0616 44.7865 29.0872 44.668 29.123C44.5856 29.1486 44.5033 29.1742 44.4209 29.2049C44.3076 29.2459 44.1943 29.2817 44.081 29.3278C43.9987 29.3585 43.9214 29.3944 43.839 29.4302C43.7309 29.4763 43.6279 29.5275 43.5198 29.5838C43.4426 29.6248 43.3653 29.6657 43.2881 29.7067C43.1851 29.763 43.0873 29.8245 42.9843 29.891C42.9122 29.9371 42.8401 29.9832 42.768 30.0293C42.6702 30.0958 42.5724 30.1726 42.4745 30.2443C42.4127 30.2955 42.3458 30.3416 42.284 30.3928C42.181 30.4798 42.0884 30.5669 41.9905 30.659C41.939 30.7051 41.8875 30.7512 41.8361 30.8024C41.7073 30.9355 41.5786 31.0738 41.4602 31.212C41.4499 31.2222 41.4396 31.2325 41.4293 31.2478C41.3006 31.4014 41.1821 31.5653 41.0637 31.7291C41.0277 31.7803 40.9968 31.8366 40.9607 31.893C40.8835 32.0107 40.8114 32.1234 40.7445 32.2463C40.7084 32.3128 40.6724 32.3845 40.6363 32.4562C40.5797 32.5688 40.523 32.6815 40.4716 32.7941C40.4407 32.8709 40.4098 32.9477 40.3789 33.0245C40.3325 33.1371 40.2913 33.2549 40.2501 33.3675C40.2244 33.4495 40.1987 33.5314 40.1729 33.6133C40.1369 33.7311 40.106 33.8488 40.0802 33.9717C40.0596 34.0536 40.0442 34.1407 40.0287 34.2226C40.0184 34.2738 40.003 34.3199 39.9978 34.3711H21.9504C21.9401 34.3199 21.9298 34.2687 21.9195 34.2226C21.9041 34.1407 21.8835 34.0536 21.868 33.9717C21.8423 33.8488 21.8114 33.7311 21.7753 33.6133C21.7496 33.5314 21.729 33.4495 21.7033 33.3727C21.6621 33.2549 21.6209 33.1423 21.5745 33.0245C21.5436 32.9477 21.5127 32.8709 21.4818 32.7941C21.4304 32.6763 21.3737 32.5637 21.3171 32.4511C21.281 32.3845 21.2501 32.3128 21.2089 32.2463C21.142 32.1234 21.0648 32.0056 20.9927 31.893C20.9566 31.8418 20.9258 31.7854 20.8897 31.7342C20.7764 31.5704 20.6529 31.4066 20.5241 31.253C20.5138 31.2427 20.5035 31.2325 20.4984 31.2222C20.38 31.0789 20.2512 30.9406 20.1173 30.8075C20.071 30.7614 20.0195 30.7154 19.968 30.6693C19.8702 30.5771 19.7724 30.4849 19.6694 30.403C19.6076 30.3518 19.5458 30.3057 19.4789 30.2545C19.381 30.1777 19.2884 30.1061 19.1854 30.0344C19.1133 29.9883 19.0412 29.9422 18.9743 29.8961C18.8764 29.8347 18.7734 29.7733 18.6705 29.7118C18.5932 29.6709 18.516 29.6299 18.4388 29.5889C18.3358 29.5326 18.2276 29.4865 18.1195 29.4353C18.0423 29.3995 17.9599 29.3636 17.8775 29.3329C17.7642 29.2868 17.651 29.2459 17.5377 29.21C17.4553 29.1844 17.3729 29.1537 17.2905 29.1281C17.1721 29.0923 17.0485 29.0616 16.9249 29.036C16.8426 29.0155 16.7653 28.995 16.6829 28.9796C16.5439 28.954 16.4049 28.9336 16.2659 28.9182C16.1938 28.908 16.1268 28.8977 16.0547 28.8875C15.8436 28.867 15.6274 28.8568 15.4111 28.8568C15.1949 28.8568 14.9786 28.867 14.7675 28.8875C14.6954 28.8926 14.6285 28.908 14.5564 28.9182C14.4173 28.9387 14.2783 28.954 14.1393 28.9796C14.0569 28.995 13.9797 29.0155 13.8973 29.036C13.7737 29.0667 13.6501 29.0923 13.5317 29.1281C13.4493 29.1537 13.3669 29.1793 13.2846 29.21C13.1713 29.251 13.058 29.2868 12.9499 29.3329C12.8675 29.3636 12.7902 29.3995 12.7079 29.4353C12.5997 29.4814 12.4968 29.5326 12.3886 29.5889C12.3114 29.6299 12.2341 29.6709 12.1569 29.7118C12.0539 29.7681 11.9561 29.8296 11.8583 29.891C11.7862 29.9371 11.7141 29.9832 11.642 30.0344C11.5442 30.1009 11.4463 30.1777 11.3537 30.2494C11.2919 30.3006 11.2249 30.3467 11.1631 30.3979C11.0602 30.4798 10.9675 30.572 10.8697 30.6641C10.8182 30.7102 10.7667 30.7563 10.7152 30.8075C10.5865 30.9355 10.4629 31.0738 10.3444 31.212C10.3341 31.2274 10.3187 31.2376 10.3084 31.253C10.1797 31.4066 10.0612 31.5704 9.94797 31.7342C9.91193 31.7854 9.88103 31.8418 9.84499 31.8981C9.7729 32.0159 9.69567 32.1285 9.62873 32.2514C9.59269 32.3179 9.55664 32.3896 9.5206 32.4613C9.46396 32.5739 9.40732 32.6866 9.35583 32.7992C9.32493 32.876 9.29404 32.9528 9.26315 33.0296C9.2168 33.1423 9.17561 33.26 9.13442 33.3727C9.10867 33.4546 9.08293 33.5365 9.05718 33.6184C9.02114 33.7362 8.99025 33.854 8.9645 33.9768C8.9439 34.0588 8.92846 34.1458 8.91301 34.2277C8.90271 34.2789 8.88727 34.325 8.88212 34.3762H2.27073C2.1935 34.3762 2.12656 34.3096 2.12656 34.2277V28.6008C2.12656 28.524 2.18835 28.4625 2.27073 28.4625H2.93496H37.1453C37.7323 28.4625 38.206 27.9915 38.206 27.4078V11.9861H39.3645V20.4752C39.3645 21.0589 39.8382 21.5299 40.4252 21.5299C41.0122 21.5299 41.4859 21.0589 41.4859 20.4752V11.9861H46.8306C47.0932 11.9861 47.3352 12.1141 47.4588 12.3035L52.0054 19.8864C52.1651 20.127 52.3195 20.383 52.474 20.6442L49.5905 21.7347C47.8295 22.4003 45.9759 22.7383 44.0913 22.7383H40.4252C39.8382 22.7383 39.3645 23.2093 39.3645 23.793C39.3645 24.3767 39.8382 24.8477 40.4252 24.8477H44.0913C46.2385 24.8477 48.3445 24.4637 50.3474 23.706L53.4523 22.5335C54.338 24.5252 54.8889 26.6346 54.8786 28.2577V34.366Z" fill="#1771F1"/>
</svg>
